{
	"asset":{
		"generator":"Khronos glTF Blender I/O v4.2.60",
		"version":"2.0"
	},
	"scene":0,
	"scenes":[
		{
			"name":"Scene",
			"nodes":[
				2,
				7,
				8
			]
		}
	],
	"nodes":[
		{
			"mesh":0,
			"name":"\u7acb\u65b9\u4f53.001",
			"scale":[
				0.38210979104042053,
				0.3821098208427429,
				0.38210976123809814
			],
			"translation":[
				0,
				-0.17475587129592896,
				-0.6723913550376892
			]
		},
		{
			"mesh":1,
			"name":"\u7acb\u65b9\u4f53.002",
			"rotation":[
				0,
				0,
				1,
				1.4778447354757418e-09
			],
			"scale":[
				0.24461562931537628,
				0.19165641069412231,
				0.4856795072555542
			]
		},
		{
			"children":[
				0,
				1
			],
			"mesh":2,
			"name":"Ribbon",
			"rotation":[
				-0.6447733640670776,
				-0.07283809781074524,
				-0.7522896528244019,
				0.11411485075950623
			],
			"scale":[
				-0.42003896832466125,
				-0.42003893852233887,
				-0.16575363278388977
			],
			"translation":[
				0.4355447590351105,
				-0.9102705121040344,
				0.027100075036287308
			]
		},
		{
			"mesh":3,
			"name":"Hat",
			"rotation":[
				-0.2989892065525055,
				-0.07223181426525116,
				0.01674574986100197,
				0.951371431350708
			],
			"scale":[
				0.4808831810951233,
				0.4808832108974457,
				0.4808832108974457
			],
			"translation":[
				0,
				0.8066825866699219,
				-0.6528304815292358
			]
		},
		{
			"mesh":4,
			"name":"\u5186",
			"rotation":[
				-0.1971844583749771,
				0.16360194981098175,
				-0.6127509474754333,
				0.7475887537002563
			],
			"scale":[
				0.09577305614948273,
				0.09577307105064392,
				0.09577306360006332
			],
			"translation":[
				0.7482149600982666,
				0.10753250122070312,
				-0.32999205589294434
			]
		},
		{
			"mesh":5,
			"name":"\u7acb\u65b9\u4f53",
			"scale":[
				0.23721149563789368,
				0.23721149563789368,
				0.23721149563789368
			],
			"translation":[
				-0.5442478060722351,
				-2.571211099624634,
				0
			]
		},
		{
			"mesh":6,
			"name":"\u9f3b",
			"rotation":[
				0,
				0,
				-0.2327449768781662,
				0.9725378155708313
			],
			"scale":[
				0.08005190640687943,
				0.11829549819231033,
				0.11829550564289093
			],
			"translation":[
				1.0646350383758545,
				0.08567023277282715,
				0
			]
		},
		{
			"children":[
				3,
				4,
				5,
				6
			],
			"mesh":7,
			"name":"Bear",
			"translation":[
				1.509690523147583,
				2.9513792991638184,
				-0.5139771699905396
			]
		},
		{
			"mesh":8,
			"name":"\u5e73\u9762",
			"scale":[
				1.7776533365249634,
				1.7776533365249634,
				1.7776533365249634
			]
		}
	],
	"materials":[
		{
			"doubleSided":true,
			"name":"\u30de\u30c6\u30ea\u30a2\u30eb.001",
			"pbrMetallicRoughness":{
				"baseColorFactor":[
					0.8000156879425049,
					0.18979501724243164,
					0.582923173904419,
					1
				],
				"metallicFactor":0.14000000059604645,
				"roughnessFactor":0.5
			}
		},
		{
			"doubleSided":true,
			"name":"\u30de\u30c6\u30ea\u30a2\u30eb.004",
			"pbrMetallicRoughness":{
				"baseColorFactor":[
					0.4863835573196411,
					0.26972419023513794,
					0.800039529800415,
					1
				],
				"metallicFactor":0,
				"roughnessFactor":0.5
			}
		},
		{
			"doubleSided":true,
			"name":"\u30de\u30c6\u30ea\u30a2\u30eb.003",
			"pbrMetallicRoughness":{
				"baseColorFactor":[
					0.09030729532241821,
					0.06760125607252121,
					0.04066968336701393,
					1
				],
				"metallicFactor":0,
				"roughnessFactor":0.5
			}
		},
		{
			"doubleSided":true,
			"name":"\u30de\u30c6\u30ea\u30a2\u30eb",
			"pbrMetallicRoughness":{
				"baseColorFactor":[
					0.8000074625015259,
					0.5657587051391602,
					0.317629873752594,
					1
				],
				"metallicFactor":0,
				"roughnessFactor":0.5
			}
		},
		{
			"doubleSided":true,
			"name":"\u30de\u30c6\u30ea\u30a2\u30eb.002",
			"pbrMetallicRoughness":{
				"baseColorFactor":[
					0.176690936088562,
					0.12067054212093353,
					0.09248101711273193,
					1
				],
				"metallicFactor":0,
				"roughnessFactor":0.5
			}
		},
		{
			"doubleSided":true,
			"name":"\u30de\u30c6\u30ea\u30a2\u30eb.007",
			"pbrMetallicRoughness":{
				"baseColorFactor":[
					0.48369723558425903,
					0.8936043977737427,
					0.41503554582595825,
					1
				],
				"metallicFactor":0,
				"roughnessFactor":0.5
			}
		}
	],
	"meshes":[
		{
			"name":"\u7acb\u65b9\u4f53.002",
			"primitives":[
				{
					"attributes":{
						"POSITION":0,
						"NORMAL":1,
						"TEXCOORD_0":2
					},
					"indices":3,
					"material":0
				}
			]
		},
		{
			"name":"\u7acb\u65b9\u4f53.003",
			"primitives":[
				{
					"attributes":{
						"POSITION":4,
						"NORMAL":5,
						"TEXCOORD_0":6
					},
					"indices":7,
					"material":0
				}
			]
		},
		{
			"name":"\u7acb\u65b9\u4f53.001",
			"primitives":[
				{
					"attributes":{
						"POSITION":8,
						"NORMAL":9,
						"TEXCOORD_0":10
					},
					"indices":11,
					"material":0
				}
			]
		},
		{
			"name":"\u5186\u67f1.001",
			"primitives":[
				{
					"attributes":{
						"POSITION":12,
						"NORMAL":13,
						"TEXCOORD_0":14
					},
					"indices":15,
					"material":1
				},
				{
					"attributes":{
						"POSITION":16,
						"NORMAL":17,
						"TEXCOORD_0":18
					},
					"indices":19,
					"material":0
				}
			]
		},
		{
			"name":"\u5186",
			"primitives":[
				{
					"attributes":{
						"POSITION":20,
						"NORMAL":21,
						"TEXCOORD_0":22
					},
					"indices":23,
					"material":2
				}
			]
		},
		{
			"name":"\u7acb\u65b9\u4f53.010",
			"primitives":[
				{
					"attributes":{
						"POSITION":24,
						"NORMAL":25,
						"TEXCOORD_0":26
					},
					"indices":7,
					"material":3
				}
			]
		},
		{
			"name":"\u7acb\u65b9\u4f53.009",
			"primitives":[
				{
					"attributes":{
						"POSITION":27,
						"NORMAL":28,
						"TEXCOORD_0":29
					},
					"indices":7,
					"material":4
				}
			]
		},
		{
			"name":"\u7acb\u65b9\u4f53.007",
			"primitives":[
				{
					"attributes":{
						"POSITION":30,
						"NORMAL":31,
						"TEXCOORD_0":32
					},
					"indices":33,
					"material":3
				}
			]
		},
		{
			"name":"\u5e73\u9762.002",
			"primitives":[
				{
					"attributes":{
						"POSITION":34,
						"NORMAL":35,
						"TEXCOORD_0":36
					},
					"indices":37,
					"material":5
				}
			]
		}
	],
	"accessors":[
		{
			"bufferView":0,
			"componentType":5126,
			"count":84,
			"max":[
				1.2075514793395996,
				0.8948305249214172,
				1.7327942848205566
			],
			"min":[
				-1.2434093952178955,
				-0.4415321350097656,
				-0.15272322297096252
			],
			"type":"VEC3"
		},
		{
			"bufferView":1,
			"componentType":5126,
			"count":84,
			"type":"VEC3"
		},
		{
			"bufferView":2,
			"componentType":5126,
			"count":84,
			"type":"VEC2"
		},
		{
			"bufferView":3,
			"componentType":5123,
			"count":324,
			"type":"SCALAR"
		},
		{
			"bufferView":4,
			"componentType":5126,
			"count":14,
			"max":[
				1,
				1,
				1
			],
			"min":[
				-1,
				-1,
				-1
			],
			"type":"VEC3"
		},
		{
			"bufferView":5,
			"componentType":5126,
			"count":14,
			"type":"VEC3"
		},
		{
			"bufferView":6,
			"componentType":5126,
			"count":14,
			"type":"VEC2"
		},
		{
			"bufferView":7,
			"componentType":5123,
			"count":36,
			"type":"SCALAR"
		},
		{
			"bufferView":8,
			"componentType":5126,
			"count":84,
			"max":[
				1.0931013822555542,
				0.6201292872428894,
				0.6889938116073608
			],
			"min":[
				-1.073311448097229,
				-0.6219520568847656,
				-0.765518307685852
			],
			"type":"VEC3"
		},
		{
			"bufferView":9,
			"componentType":5126,
			"count":84,
			"type":"VEC3"
		},
		{
			"bufferView":10,
			"componentType":5126,
			"count":84,
			"type":"VEC2"
		},
		{
			"bufferView":11,
			"componentType":5123,
			"count":324,
			"type":"SCALAR"
		},
		{
			"bufferView":12,
			"componentType":5126,
			"count":1161,
			"max":[
				1.6207752227783203,
				1.0188589096069336,
				1.6207752227783203
			],
			"min":[
				-1.6207752227783203,
				-0.8566436767578125,
				-1.6207752227783203
			],
			"type":"VEC3"
		},
		{
			"bufferView":13,
			"componentType":5126,
			"count":1161,
			"type":"VEC3"
		},
		{
			"bufferView":14,
			"componentType":5126,
			"count":1161,
			"type":"VEC2"
		},
		{
			"bufferView":15,
			"componentType":5123,
			"count":5172,
			"type":"SCALAR"
		},
		{
			"bufferView":16,
			"componentType":5126,
			"count":73,
			"max":[
				1.026419997215271,
				-0.43914392590522766,
				1.026419997215271
			],
			"min":[
				-1.026419997215271,
				-0.6508371829986572,
				-1.026419997215271
			],
			"type":"VEC3"
		},
		{
			"bufferView":17,
			"componentType":5126,
			"count":73,
			"type":"VEC3"
		},
		{
			"bufferView":18,
			"componentType":5126,
			"count":73,
			"type":"VEC2"
		},
		{
			"bufferView":19,
			"componentType":5123,
			"count":192,
			"type":"SCALAR"
		},
		{
			"bufferView":20,
			"componentType":5126,
			"count":64,
			"max":[
				1,
				0,
				1
			],
			"min":[
				-1,
				0,
				-1
			],
			"type":"VEC3"
		},
		{
			"bufferView":21,
			"componentType":5126,
			"count":64,
			"type":"VEC3"
		},
		{
			"bufferView":22,
			"componentType":5126,
			"count":64,
			"type":"VEC2"
		},
		{
			"bufferView":23,
			"componentType":5123,
			"count":282,
			"type":"SCALAR"
		},
		{
			"bufferView":24,
			"componentType":5126,
			"count":14,
			"max":[
				1,
				1,
				1
			],
			"min":[
				-1,
				-1,
				-1
			],
			"type":"VEC3"
		},
		{
			"bufferView":25,
			"componentType":5126,
			"count":14,
			"type":"VEC3"
		},
		{
			"bufferView":26,
			"componentType":5126,
			"count":14,
			"type":"VEC2"
		},
		{
			"bufferView":27,
			"componentType":5126,
			"count":14,
			"max":[
				1,
				1,
				1
			],
			"min":[
				-1,
				-1,
				-1
			],
			"type":"VEC3"
		},
		{
			"bufferView":28,
			"componentType":5126,
			"count":14,
			"type":"VEC3"
		},
		{
			"bufferView":29,
			"componentType":5126,
			"count":14,
			"type":"VEC2"
		},
		{
			"bufferView":30,
			"componentType":5126,
			"count":213,
			"max":[
				1.5744003057479858,
				1.2375943660736084,
				1.2542273998260498
			],
			"min":[
				-0.8395063877105713,
				-3.046311378479004,
				-1.927797794342041
			],
			"type":"VEC3"
		},
		{
			"bufferView":31,
			"componentType":5126,
			"count":213,
			"type":"VEC3"
		},
		{
			"bufferView":32,
			"componentType":5126,
			"count":213,
			"type":"VEC2"
		},
		{
			"bufferView":33,
			"componentType":5123,
			"count":1080,
			"type":"SCALAR"
		},
		{
			"bufferView":34,
			"componentType":5126,
			"count":4,
			"max":[
				12.5,
				0,
				12.5
			],
			"min":[
				-12.5,
				0,
				-12.5
			],
			"type":"VEC3"
		},
		{
			"bufferView":35,
			"componentType":5126,
			"count":4,
			"type":"VEC3"
		},
		{
			"bufferView":36,
			"componentType":5126,
			"count":4,
			"type":"VEC2"
		},
		{
			"bufferView":37,
			"componentType":5123,
			"count":6,
			"type":"SCALAR"
		}
	],
	"bufferViews":[
		{
			"buffer":0,
			"byteLength":1008,
			"byteOffset":0,
			"target":34962
		},
		{
			"buffer":0,
			"byteLength":1008,
			"byteOffset":1008,
			"target":34962
		},
		{
			"buffer":0,
			"byteLength":672,
			"byteOffset":2016,
			"target":34962
		},
		{
			"buffer":0,
			"byteLength":648,
			"byteOffset":2688,
			"target":34963
		},
		{
			"buffer":0,
			"byteLength":168,
			"byteOffset":3336,
			"target":34962
		},
		{
			"buffer":0,
			"byteLength":168,
			"byteOffset":3504,
			"target":34962
		},
		{
			"buffer":0,
			"byteLength":112,
			"byteOffset":3672,
			"target":34962
		},
		{
			"buffer":0,
			"byteLength":72,
			"byteOffset":3784,
			"target":34963
		},
		{
			"buffer":0,
			"byteLength":1008,
			"byteOffset":3856,
			"target":34962
		},
		{
			"buffer":0,
			"byteLength":1008,
			"byteOffset":4864,
			"target":34962
		},
		{
			"buffer":0,
			"byteLength":672,
			"byteOffset":5872,
			"target":34962
		},
		{
			"buffer":0,
			"byteLength":648,
			"byteOffset":6544,
			"target":34963
		},
		{
			"buffer":0,
			"byteLength":13932,
			"byteOffset":7192,
			"target":34962
		},
		{
			"buffer":0,
			"byteLength":13932,
			"byteOffset":21124,
			"target":34962
		},
		{
			"buffer":0,
			"byteLength":9288,
			"byteOffset":35056,
			"target":34962
		},
		{
			"buffer":0,
			"byteLength":10344,
			"byteOffset":44344,
			"target":34963
		},
		{
			"buffer":0,
			"byteLength":876,
			"byteOffset":54688,
			"target":34962
		},
		{
			"buffer":0,
			"byteLength":876,
			"byteOffset":55564,
			"target":34962
		},
		{
			"buffer":0,
			"byteLength":584,
			"byteOffset":56440,
			"target":34962
		},
		{
			"buffer":0,
			"byteLength":384,
			"byteOffset":57024,
			"target":34963
		},
		{
			"buffer":0,
			"byteLength":768,
			"byteOffset":57408,
			"target":34962
		},
		{
			"buffer":0,
			"byteLength":768,
			"byteOffset":58176,
			"target":34962
		},
		{
			"buffer":0,
			"byteLength":512,
			"byteOffset":58944,
			"target":34962
		},
		{
			"buffer":0,
			"byteLength":564,
			"byteOffset":59456,
			"target":34963
		},
		{
			"buffer":0,
			"byteLength":168,
			"byteOffset":60020,
			"target":34962
		},
		{
			"buffer":0,
			"byteLength":168,
			"byteOffset":60188,
			"target":34962
		},
		{
			"buffer":0,
			"byteLength":112,
			"byteOffset":60356,
			"target":34962
		},
		{
			"buffer":0,
			"byteLength":168,
			"byteOffset":60468,
			"target":34962
		},
		{
			"buffer":0,
			"byteLength":168,
			"byteOffset":60636,
			"target":34962
		},
		{
			"buffer":0,
			"byteLength":112,
			"byteOffset":60804,
			"target":34962
		},
		{
			"buffer":0,
			"byteLength":2556,
			"byteOffset":60916,
			"target":34962
		},
		{
			"buffer":0,
			"byteLength":2556,
			"byteOffset":63472,
			"target":34962
		},
		{
			"buffer":0,
			"byteLength":1704,
			"byteOffset":66028,
			"target":34962
		},
		{
			"buffer":0,
			"byteLength":2160,
			"byteOffset":67732,
			"target":34963
		},
		{
			"buffer":0,
			"byteLength":48,
			"byteOffset":69892,
			"target":34962
		},
		{
			"buffer":0,
			"byteLength":48,
			"byteOffset":69940,
			"target":34962
		},
		{
			"buffer":0,
			"byteLength":32,
			"byteOffset":69988,
			"target":34962
		},
		{
			"buffer":0,
			"byteLength":12,
			"byteOffset":70020,
			"target":34963
		}
	],
	"buffers":[
		{
			"byteLength":70032,
			"uri":"./Bear.bin"
		}
	]
}
